# xmcd CD database file
#
# Track frame offsets:
#	150
#	41930
#	68435
#	87815
#	103255
#	122144
#	135005
#	152622
#	167295
#	180515
#	200145
#	216730
#	234396
#
# Disc length: 3475 seconds
#
# Revision: 0
# Processed by: cddbd v1.5.2PL0 Copyright (c) Steve Scherf et al.
# Submitted via: CDex 1.51
#
DISCID=ad0d910d
DTITLE=Timbre - Timbre plus
DYEAR=2003
DGENRE=Jazz
TTITLE0=Percussive Moments 1
TTITLE1=Percussive Moments 2
TTITLE2=Percussive Moments 3
TTITLE3=Initials
TTITLE4=Mouvement chordophonique 1
TTITLE5=Mouvement chordophonique 2
TTITLE6=Mouvement chordophonique 3
TTITLE7=Mouvement chordophonique 4
TTITLE8=Talking Particles
TTITLE9=Aerophonic Movement 1
TTITLE10=Aerophonic Movement 2
TTITLE11=Aerophonic Movement 3
TTITLE12=Organum
EXTD=YEAR: 2003
EXTT0=
EXTT1=
EXTT2=
EXTT3=
EXTT4=
EXTT5=
EXTT6=
EXTT7=
EXTT8=
EXTT9=
EXTT10=
EXTT11=
EXTT12=
PLAYORDER=
